HIERARCHY
ROOT simHips
{
  OFFSET 0.409278 90.7463 -0.970823
  CHANNELS 6 Xposition Yposition Zposition Zrotation Xrotation Yrotation
  JOINT simSpine
  {
    OFFSET -0.000355721 21.3001 -0.016921
    CHANNELS 3 Zrotation Xrotation Yrotation
    JOINT simLeftArm
    {
      OFFSET 13.5181 21.3012 0
      CHANNELS 3 Zrotation Xrotation Yrotation
      JOINT simLeftForeArm
      {
        OFFSET 24.5783 0 0
        CHANNELS 3 Zrotation Xrotation Yrotation
        JOINT simLeftHand
        {
          OFFSET 24.5783 0 0
          CHANNELS 3 Zrotation Xrotation Yrotation
          End Site
          {
            OFFSET 7.32568 1.52588e-05 0.0169305
          }
        }
      }
    }
    JOINT simHead
    {
      OFFSET 0 27.4458 -0.00489235
      CHANNELS 3 Zrotation Xrotation Yrotation
      End Site
      {
        OFFSET 0 0 0
      }
    }
    JOINT simRightArm
    {
      OFFSET -13.5174 21.3012 0
      CHANNELS 3 Zrotation Xrotation Yrotation
      JOINT simRightForeArm
      {
        OFFSET -24.5783 0 0
        CHANNELS 3 Zrotation Xrotation Yrotation
        JOINT simRightHand
        {
          OFFSET -24.5783 0 0
          CHANNELS 3 Zrotation Xrotation Yrotation
          End Site
          {
            OFFSET -7.32568 1.52588e-05 0.0169305
          }
        }
      }
    }
  }
  JOINT simRightUpLeg
  {
    OFFSET -8.44614 -9.41038 0.835684
    CHANNELS 3 Zrotation Xrotation Yrotation
    JOINT simRightLeg
    {
      OFFSET 0 -40.9639 0
      CHANNELS 3 Zrotation Xrotation Yrotation
      JOINT simRightFoot
      {
        OFFSET 0 -40.9639 0
        CHANNELS 3 Zrotation Xrotation Yrotation
        End Site
        {
          OFFSET 0.50614 -9.67405 14.6709
        }
      }
    }
  }
  JOINT simLeftUpLeg
  {
    OFFSET 8.44614 -9.41038 0.835684
    CHANNELS 3 Zrotation Xrotation Yrotation
    JOINT simLeftLeg
    {
      OFFSET 0 -40.9639 0
      CHANNELS 3 Zrotation Xrotation Yrotation
      JOINT simLeftFoot
      {
        OFFSET 0 -40.9639 0
        CHANNELS 3 Zrotation Xrotation Yrotation
        End Site
        {
          OFFSET -0.50614 -9.67405 14.6709
        }
      }
    }
  }
}
MOTION
Frames:	21
Frame Time:	0.0333333
2.49679 84.1671 41.4271 -5.08832 3.77197 -48.5539 -2.88034 8.43473 2.04857 -62.5872 -10.4014 -24.8569 -0.000120928 5.7922e-06 -112.309 -3.94216 -21.1706 -5.71053 -10.9187 19.8236 25.773 47.0813 19.9654 63.5159 2.87163e-05 1.47185e-05 103.954 -24.1999 -11.3616 13.3844 -29.0387 -3.86674 -18.0484 -11.5654 41.6812 17.4031 20.0614 -12.7403 9.83064 36.8999 -35.0136 22.2802 18.6932 55.739 -24.2557 -22.954 -10.2648 -17.3368 
1.83376 84.5993 39.1483 -4.83063 3.09938 -48.166 -2.67011 8.3756 1.97662 -61.2549 -11.1405 -25.9975 -0.000120732 6.24945e-06 -114.177 -0.425058 -17.9719 -3.0202 -11.8236 21.105 26.6786 47.1246 20.2446 63.9135 2.88583e-05 1.41348e-05 103.39 -24.1098 -11.2716 12.3383 -28.6967 -4.42412 -18.0632 -11.2897 42.0797 17.2189 21.9735 -12.9232 9.79753 36.4597 -33.5019 21.8256 16.8721 51.2628 -22.0248 -24.3274 -7.18871 -16.9925 
1.02537 85.0079 36.4992 -4.42367 2.11773 -47.6124 -2.45861 8.28368 1.90227 -60.7029 -11.034 -26.1902 -0.00012052 6.70201e-06 -116.054 1.8761 -15.6829 -1.50034 -13.0692 22.3535 27.577 46.9807 20.6765 64.2754 2.89858e-05 1.35882e-05 102.863 -24.017 -10.9514 10.8568 -28.2236 -4.79285 -17.9793 -11.1072 43.095 17.1771 23.9725 -14.1332 8.85763 35.7469 -31.8095 21.4604 15.2905 45.9832 -19.8049 -25.5479 -2.4715 -16.8504 
0.0448123 85.4177 33.5015 -3.69997 0.901164 -46.4638 -2.26208 8.11396 1.81762 -61.0634 -9.99877 -25.5816 -0.000120284 7.16315e-06 -117.998 3.23896 -13.49 -0.477495 -14.5924 23.3957 28.1564 46.6239 21.1365 64.2241 2.90297e-05 1.33945e-05 102.677 -24.0316 -10.1831 9.44081 -27.7764 -4.57855 -18.0207 -10.4711 43.9032 16.8075 25.4121 -16.9647 7.85397 34.6208 -30.2861 21.3987 13.879 39.6907 -17.6825 -26.3198 4.59698 -16.4644 
-1.07655 85.8734 30.2878 -2.50857 -0.437113 -44.5138 -2.11084 7.80822 1.71841 -62.3014 -7.92675 -24.1089 -0.000120045 7.59646e-06 -119.857 4.42727 -10.9472 0.257935 -16.1731 24.2229 28.1637 45.829 21.3194 63.6762 2.90112e-05 1.34766e-05 102.756 -24.2321 -9.40153 8.63155 -27.5159 -3.51783 -18.324 -9.00285 43.4723 15.7163 26.3381 -20.904 6.97248 32.7616 -29.0712 22.2756 12.6945 32.6727 -15.8674 -24.711 11.6184 -15.5929 
-2.15483 86.245 27.0788 -0.997017 -1.79894 -41.9089 -1.94345 7.45553 1.61238 -64.0268 -5.17827 -21.9501 -0.000119831 7.95782e-06 -121.434 5.52037 -8.0362 0.348999 -17.5146 25.1168 27.5507 44.6501 20.9695 62.9117 2.90181e-05 1.3446e-05 102.727 -24.4407 -9.19903 8.48261 -27.6931 -2.00771 -18.9043 -7.14817 42.6588 13.9331 27.6576 -26.9725 6.86677 29.818 -28.0611 23.198 11.5633 25.6086 -14.2179 -21.7266 16.9016 -13.7355 
-2.91933 86.3809 24.1133 0.32278 -3.17975 -39.0877 -1.62464 7.31636 1.48476 -65.518 -2.45769 -19.6445 -0.000119651 8.24464e-06 -122.705 6.04754 -4.99815 -0.441539 -18.3119 26.4289 26.6196 43.7011 20.136 62.2807 2.91056e-05 1.30523e-05 102.348 -24.1165 -9.44636 8.58491 -28.3377 -1.39756 -19.6557 -5.48414 43.9249 11.7749 26.3866 -32.1904 6.76779 26.4043 -27.3778 23.0694 10.4113 20.9899 -13.2677 -19.4852 18.5553 -11.5392 
-3.27535 86.559 21.4806 0.945105 -4.50449 -36.7037 -1.15005 7.5968 1.38449 -66.1781 -0.28193 -17.816 -0.000119499 8.47694e-06 -123.748 5.85678 -2.11857 -1.803 -18.576 28.2097 25.9283 43.5908 19.3705 61.7145 2.91919e-05 1.26518e-05 101.963 -23.0889 -9.41457 8.70989 -29.0992 -1.94017 -20.1205 -4.40112 46.9796 10.0621 25.0865 -33.2839 6.63605 24.3891 -27.607 22.2726 8.90015 22.6197 -13.0115 -19.665 15.2407 -11.228 
-3.30829 87.0147 19.4034 0.932855 -5.40776 -35.223 -0.654965 7.98107 1.31404 -65.8636 1.01688 -17.2117 -0.000119371 8.66546e-06 -124.604 5.35576 0.264594 -2.49741 -18.5068 29.8395 25.7089 44.4116 19.0968 61.0466 2.91741e-05 1.27356e-05 102.044 -21.9356 -8.91235 8.6355 -28.6149 -2.17892 -20.0326 -4.01037 48.1538 8.3402 24.2584 -33.2815 6.37013 23.0411 -28.6778 21.2776 9.34366 29.0327 -14.1618 -23.1747 10.6416 -13.5684 
-3.1566 87.9462 17.9558 0.76274 -5.47142 -34.7496 -0.2989 8.00717 1.28706 -64.9164 1.32945 -17.9494 -0.000119271 8.8087e-06 -125.26 4.94564 1.90892 -1.90493 -18.369 30.6532 25.8335 45.7549 19.4757 60.1313 2.90278e-05 1.3403e-05 102.685 -21.3019 -8.23189 8.52594 -27.0292 -2.44945 -19.4064 -3.99502 47.038 6.39484 23.7255 -32.0349 5.91327 22.2929 -29.616 20.2863 10.3251 36.6082 -15.8354 -26.4991 7.60406 -16.7937 
-2.84566 89.4248 16.9909 0.671736 -4.70142 -35.186 -0.0832622 7.66732 1.29835 -63.7811 0.755726 -19.3687 -0.000119192 8.91891e-06 -125.768 4.80824 2.69874 -0.707762 -18.4342 30.5521 26.2613 47.1435 20.3062 59.2055 2.88186e-05 1.43005e-05 103.55 -21.26 -7.74962 8.521 -24.8296 -2.62695 -18.5099 -3.84282 43.452 4.26342 23.0495 -29.4289 5.13916 21.5937 -29.636 19.2995 10.9 42.4255 -17.0489 -27.2111 5.4698 -18.2544 
-2.32596 91.1468 16.3662 0.618826 -3.38646 -36.4264 0.110255 7.15043 1.32178 -62.7032 -0.542476 -20.7639 -0.000119104 9.04031e-06 -126.332 5.027 2.64973 0.31059 -18.7912 29.5287 27.0414 48.2398 21.0935 59.0805 2.86422e-05 1.50138e-05 104.24 -21.502 -7.88502 8.18608 -22.5339 -2.63149 -17.469 -3.38099 38.0743 2.45447 22.0172 -25.848 4.12676 20.9528 -28.479 18.7419 10.3778 45.4995 -17.0805 -25.5734 2.97707 -17.4992 
-1.62499 92.5779 15.9427 0.644394 -1.80721 -38.3974 0.228365 6.54299 1.35767 -61.6914 -2.49444 -21.9966 -0.000118978 9.20854e-06 -127.12 5.53966 2.14722 1.28682 -19.2601 27.5259 28.0889 48.8367 21.3864 60.5436 2.85495e-05 1.53742e-05 104.589 -21.7865 -8.62662 6.98479 -20.8674 -3.02933 -16.7026 -2.53468 32.8111 2.0848 20.5022 -22.3799 3.2547 20.4098 -26.317 18.8622 8.94179 45.4255 -16.0273 -22.6861 -0.280412 -15.4812 
-0.808966 93.4457 15.6621 0.746571 -0.133296 -40.8592 0.267313 5.87761 1.389 -60.6613 -4.8031 -23.1274 -0.000118828 9.40411e-06 -128.047 6.34296 1.89849 2.52637 -19.4686 24.8007 29.1221 48.947 20.9976 63.4823 2.85465e-05 1.53858e-05 104.601 -22.0041 -9.47641 5.17002 -20.1432 -4.16588 -16.4841 -1.36082 29.1553 3.86393 19.5512 -19.9291 2.79841 19.756 -23.617 19.3567 7.59498 42.3164 -14.5194 -18.5426 -5.33791 -13.0715 
0.0646988 93.631 15.433 0.861745 1.33982 -43.271 0.253628 5.28571 1.39512 -59.5788 -6.87852 -24.2125 -0.000118708 9.55587e-06 -128.774 7.56301 2.23205 3.75113 -19.1406 22.0657 29.7892 48.9343 19.9671 66.821 2.86187e-05 1.51059e-05 104.329 -21.9581 -10.0689 3.6198 -20.5237 -6.12301 -16.6948 -0.472113 28.6293 7.23788 21.999 -18.8936 3.08715 18.8069 -21.1851 19.6141 7.29517 38.0088 -13.3308 -14.2708 -12.5466 -10.3654 
0.971673 93.2902 15.1088 0.770562 2.27894 -44.8805 0.271013 5.05582 1.36611 -58.6497 -8.02518 -25.2624 -0.000118675 9.59639e-06 -128.97 9.15779 2.91928 4.16591 -18.4406 20.2833 29.8022 49.1212 18.8202 68.9532 2.87243e-05 1.46864e-05 103.923 -21.5499 -10.3184 3.41383 -21.3302 -8.17257 -17.0383 -0.431176 31.0107 9.29588 24.6841 -17.5011 3.64079 18.8159 -21.4372 19.4477 8.50959 37.3036 -14.3416 -15.2813 -16.1929 -8.18688 
1.81344 92.6053 14.4908 0.387767 2.41936 -45.1397 0.259034 5.36959 1.31665 -58.3014 -7.88046 -26.5068 -0.000118734 9.52271e-06 -128.615 10.6383 3.60617 3.71922 -17.8512 20.0804 29.0446 49.5231 18.2156 68.8477 2.88029e-05 1.43657e-05 103.613 -20.9427 -10.2345 4.84251 -21.6709 -9.46122 -17.2758 -1.49107 35.8203 8.94187 22.4405 -18.9101 3.09803 19.1477 -23.4101 19.0252 9.85454 40.2077 -15.7582 -15.31 -17.3956 -7.49275 
2.36431 91.8234 13.4651 -0.0232372 1.72611 -44.1696 0.0165333 6.03012 1.26302 -58.8427 -6.58084 -27.8403 -0.000118837 9.39286e-06 -127.993 11.3993 4.28513 3.19302 -17.7101 21.2426 27.8323 50.1263 18.4353 66.7927 2.87952e-05 1.43974e-05 103.644 -20.3464 -9.90143 6.96155 -21.8798 -9.18293 -17.2884 -2.73843 40.0104 6.66228 21.2151 -19.3695 3.01979 19.1135 -24.9633 18.4638 10.9216 42.4225 -16.7127 -15.592 -17.6096 -8.03594 
2.59677 91.0665 12.2472 -0.368206 0.783704 -42.7208 -0.185329 6.57632 1.21494 -60.1111 -4.51428 -28.1211 -0.000118932 9.27005e-06 -127.411 11.4501 5.08637 2.69787 -17.9965 22.9143 26.9254 50.9683 19.521 64.1011 2.86903e-05 1.48229e-05 104.055 -19.8259 -9.42755 8.49038 -21.7658 -7.7575 -17.2301 -3.21828 42.0247 4.65188 21.6946 -20.0996 3.23921 19.1691 -26.1682 18.1182 11.523 44.0248 -17.2577 -15.9245 -17.2231 -9.04361 
2.6119 90.4705 10.9897 -0.594769 0.0921427 -41.5706 -0.189802 6.72842 1.19405 -61.8069 -2.36163 -26.4579 -0.000118981 9.20521e-06 -127.105 11.1593 5.63197 1.75376 -18.656 24.3104 26.9908 51.8215 21.3602 62.1156 2.85511e-05 1.53683e-05 104.584 -19.3377 -8.86713 8.8981 -21.2012 -6.34406 -17.0788 -2.81702 42.0819 2.92638 22.3469 -21.9853 3.73023 19.5838 -27.0799 18.2402 11.7701 44.8879 -17.4756 -16.2925 -16.4376 -9.96478 
2.54577 90.0955 9.62464 -0.611172 -0.300679 -40.9466 -0.10633 6.58923 1.23351 -63.817 -0.864981 -23.3849 -0.000118968 9.22287e-06 -127.188 10.7222 5.28547 0.39493 -19.6192 25.04 27.9527 52.2638 23.4668 61.3548 2.84533e-05 1.57395e-05 104.944 -18.7935 -8.28113 8.49698 -20.4228 -5.98173 -16.747 -2.22455 42.1656 1.02414 22.1152 -26.3947 4.5944 20.0216 -27.7456 18.5349 11.9214 44.7822 -17.496 -16.8158 -15.2512 -10.3427 
